<mxfile host="app.diagrams.net" agent="Mozilla/5.0 (Windows NT 10.0; Win64; x64) AppleWebKit/537.36 (KHTML, like Gecko) Chrome/131.0.0.0 Safari/537.36" version="26.0.7">
<<<<<<< HEAD
  <diagram name="Страница — 1" id="25r1SvD_yklFjiJkBADp">
    <mxGraphModel dx="1434" dy="780" grid="1" gridSize="10" guides="1" tooltips="1" connect="1" arrows="1" fold="1" page="1" pageScale="1" pageWidth="827" pageHeight="1169" math="0" shadow="0">
      <root>
        <mxCell id="0" />
        <mxCell id="1" parent="0" />
        <mxCell id="Fy4a6YLvBeBHjIgzrJtm-4" value="&lt;div style=&quot;&quot;&gt;&lt;span style=&quot;background-color: transparent; color: light-dark(rgb(0, 0, 0), rgb(255, 255, 255));&quot;&gt;&lt;b style=&quot;&quot;&gt;&lt;font style=&quot;font-size: 14px;&quot;&gt;model: product&lt;/font&gt;&lt;/b&gt;&lt;/span&gt;&lt;/div&gt;&lt;div style=&quot;text-align: left;&quot;&gt;ID: srting;&lt;/div&gt;&lt;div style=&quot;text-align: left;&quot;&gt;description:string;&lt;/div&gt;&lt;div style=&quot;text-align: left;&quot;&gt;image: string;&lt;/div&gt;&lt;div style=&quot;text-align: left;&quot;&gt;tittle: string;&lt;/div&gt;&lt;div style=&quot;text-align: left;&quot;&gt;category: string&lt;/div&gt;&lt;div style=&quot;text-align: left;&quot;&gt;price: number&lt;/div&gt;" style="rounded=1;whiteSpace=wrap;html=1;" vertex="1" parent="1">
          <mxGeometry x="140" y="170" width="120" height="120" as="geometry" />
        </mxCell>
        <mxCell id="Fy4a6YLvBeBHjIgzrJtm-6" value="&lt;div&gt;&lt;span style=&quot;background-color: transparent; color: light-dark(rgb(0, 0, 0), rgb(255, 255, 255));&quot;&gt;&lt;b&gt;&lt;font style=&quot;font-size: 14px;&quot;&gt;model:&amp;nbsp;&lt;/font&gt;&lt;/b&gt;&lt;/span&gt;&lt;span style=&quot;background-color: transparent; font-size: 14px;&quot;&gt;&lt;b&gt;order&lt;/b&gt;&lt;/span&gt;&lt;/div&gt;&lt;div style=&quot;text-align: left;&quot;&gt;payMethid: checkBox;&lt;/div&gt;&lt;div style=&quot;text-align: left;&quot;&gt;address: string;&lt;/div&gt;&lt;div style=&quot;text-align: left;&quot;&gt;email: string;&lt;/div&gt;&lt;div style=&quot;text-align: left;&quot;&gt;telephone: string;&lt;/div&gt;&lt;div style=&quot;text-align: center;&quot;&gt;products: &lt;span style=&quot;font-size: 14px;&quot;&gt;&lt;b&gt;Product[]&lt;/b&gt;&lt;/span&gt;&lt;/div&gt;&lt;div style=&quot;text-align: left;&quot;&gt;price: number&lt;/div&gt;" style="rounded=1;whiteSpace=wrap;html=1;" vertex="1" parent="1">
          <mxGeometry x="340" y="10" width="140" height="120" as="geometry" />
        </mxCell>
        <mxCell id="Fy4a6YLvBeBHjIgzrJtm-20" style="edgeStyle=none;shape=flexArrow;rounded=0;orthogonalLoop=1;jettySize=auto;html=1;exitX=0.5;exitY=0;exitDx=0;exitDy=0;entryX=0.413;entryY=1.013;entryDx=0;entryDy=0;entryPerimeter=0;" edge="1" parent="1" source="Fy4a6YLvBeBHjIgzrJtm-12" target="Fy4a6YLvBeBHjIgzrJtm-8">
          <mxGeometry relative="1" as="geometry">
            <mxPoint x="470" y="280" as="targetPoint" />
          </mxGeometry>
        </mxCell>
        <mxCell id="Fy4a6YLvBeBHjIgzrJtm-8" value="viewer&lt;div&gt;&lt;br&gt;&lt;/div&gt;" style="rounded=0;whiteSpace=wrap;html=1;" vertex="1" parent="1">
          <mxGeometry x="370" y="190" width="80" height="80" as="geometry" />
        </mxCell>
        <mxCell id="Fy4a6YLvBeBHjIgzrJtm-10" value="validator" style="rhombus;whiteSpace=wrap;html=1;" vertex="1" parent="1">
          <mxGeometry x="490" y="190" width="130" height="80" as="geometry" />
        </mxCell>
        <mxCell id="Fy4a6YLvBeBHjIgzrJtm-12" value="modal:&lt;div&gt;open()&lt;/div&gt;&lt;div&gt;close()&lt;/div&gt;" style="shape=hexagon;perimeter=hexagonPerimeter2;whiteSpace=wrap;html=1;fixedSize=1;" vertex="1" parent="1">
          <mxGeometry x="350" y="310" width="120" height="80" as="geometry" />
        </mxCell>
        <mxCell id="Fy4a6YLvBeBHjIgzrJtm-16" style="edgeStyle=none;shape=flexArrow;rounded=0;orthogonalLoop=1;jettySize=auto;html=1;exitX=1;exitY=0.25;exitDx=0;exitDy=0;entryX=-0.012;entryY=0.1;entryDx=0;entryDy=0;entryPerimeter=0;" edge="1" parent="1" source="Fy4a6YLvBeBHjIgzrJtm-4" target="Fy4a6YLvBeBHjIgzrJtm-8">
          <mxGeometry relative="1" as="geometry" />
        </mxCell>
        <mxCell id="Fy4a6YLvBeBHjIgzrJtm-17" style="edgeStyle=none;shape=flexArrow;rounded=0;orthogonalLoop=1;jettySize=auto;html=1;exitX=0;exitY=0.75;exitDx=0;exitDy=0;entryX=0.992;entryY=0.667;entryDx=0;entryDy=0;entryPerimeter=0;" edge="1" parent="1" source="Fy4a6YLvBeBHjIgzrJtm-8" target="Fy4a6YLvBeBHjIgzrJtm-4">
          <mxGeometry relative="1" as="geometry" />
        </mxCell>
        <mxCell id="Fy4a6YLvBeBHjIgzrJtm-18" style="edgeStyle=none;shape=flexArrow;rounded=0;orthogonalLoop=1;jettySize=auto;html=1;exitX=0.25;exitY=0;exitDx=0;exitDy=0;entryX=0.343;entryY=1.033;entryDx=0;entryDy=0;entryPerimeter=0;" edge="1" parent="1" source="Fy4a6YLvBeBHjIgzrJtm-8" target="Fy4a6YLvBeBHjIgzrJtm-6">
          <mxGeometry relative="1" as="geometry" />
        </mxCell>
        <mxCell id="Fy4a6YLvBeBHjIgzrJtm-19" style="edgeStyle=none;shape=flexArrow;rounded=0;orthogonalLoop=1;jettySize=auto;html=1;exitX=0.629;exitY=1.042;exitDx=0;exitDy=0;width=13;endSize=5.09;endWidth=28;exitPerimeter=0;entryX=0.75;entryY=0;entryDx=0;entryDy=0;" edge="1" parent="1" source="Fy4a6YLvBeBHjIgzrJtm-6" target="Fy4a6YLvBeBHjIgzrJtm-8">
          <mxGeometry relative="1" as="geometry">
            <mxPoint x="442" y="190" as="sourcePoint" />
            <mxPoint x="510" y="150" as="targetPoint" />
          </mxGeometry>
        </mxCell>
        <mxCell id="Fy4a6YLvBeBHjIgzrJtm-25" value="" style="endArrow=none;html=1;rounded=0;entryX=0;entryY=0.5;entryDx=0;entryDy=0;exitX=1;exitY=0.5;exitDx=0;exitDy=0;" edge="1" parent="1" source="Fy4a6YLvBeBHjIgzrJtm-8" target="Fy4a6YLvBeBHjIgzrJtm-10">
          <mxGeometry width="50" height="50" relative="1" as="geometry">
            <mxPoint x="390" y="380" as="sourcePoint" />
            <mxPoint x="440" y="330" as="targetPoint" />
          </mxGeometry>
        </mxCell>
=======
  <diagram name="Страница — 1" id="8L339qaBYB188LwJaKL0">
    <mxGraphModel>
      <root>
        <mxCell id="0" />
        <mxCell id="1" parent="0" />
>>>>>>> 52a97fd3368729c4e2847df92ab9ae57a122ae53
      </root>
    </mxGraphModel>
  </diagram>
</mxfile>
